<?xml version="1.0" encoding="utf-8"?>
<!-- Generator: Adobe Illustrator 19.2.1, SVG Export Plug-In . SVG Version: 6.00 Build 0)  -->
<svg version="1.1" id="Capa_1" xmlns="http://www.w3.org/2000/svg" xmlns:xlink="http://www.w3.org/1999/xlink" x="0px" y="0px"
	 viewBox="0 0 899 271" style="enable-background:new 0 0 899 271;" xml:space="preserve">
<style type="text/css">
	.st0{fill-rule:evenodd;clip-rule:evenodd;fill:#010202;}
</style>
<g id="AD">
	<g>
		<path class="st0" d="M255.2,115.2v37.3h19.7v5.9h-25.5v-43.2H255.2z M289.5,158.4v-17.6h13.7v-5.6h-13.7v-14h20.8v-5.9h-26.7v43.2
			H289.5z M556.6,158.4h6.4v-43.2h-6.4V158.4z M460.9,158.6c12.1,0,22-9.8,22-22c0-12.2-9.9-22-22-22c-12.1,0-22,9.8-22,22
			C439,148.8,448.8,158.6,460.9,158.6 M460.9,152.2c8.7,0,15.8-7,15.8-15.6c0-8.6-7.1-15.6-15.8-15.6c-8.8,0-15.9,7-15.9,15.6
			C445.1,145.2,452.2,152.2,460.9,152.2 M335,159.3c12.1,0,21.9-9.9,21.9-22c0-12.1-9.8-22-21.9-22c-12.1,0-21.9,9.9-21.9,22
			C313,149.4,322.9,159.3,335,159.3 M335,152.9c8.7,0,15.8-7,15.8-15.6c0-8.6-7.1-15.6-15.8-15.6c-8.7,0-15.8,7-15.8,15.6
			C319.2,145.9,326.3,152.9,335,152.9 M219.2,159.3c12.1,0,21.9-9.9,21.9-22c0-12.1-9.8-22-21.9-22c-12.2,0-22,9.9-22,22
			C197.2,149.4,207,159.3,219.2,159.3 M219.2,152.9c8.7,0,15.8-7,15.8-15.6c0-8.6-7.1-15.6-15.8-15.6c-8.8,0-15.9,7-15.9,15.6
			C203.4,145.9,210.4,152.9,219.2,152.9 M734.2,158.4h28.5v-5.9h-22.1v-11.7h17.5v-5.7h-17.5v-14h22.1v-5.9h-28.5V158.4z
			 M773.6,158.4h31.9v-5.9h-21.4l21.4-37.3h-32.1v5.9h21.3L773.6,158.4z M668,143.7c-2.6,5.1-7.9,8.6-14.1,8.6
			c-8.7,0-15.8-7-15.8-15.6c0-8.6,7.1-15.6,15.8-15.6c6.3,0,11.8,3.6,14.3,8.9l5.8-2.4c-3.5-7.6-11.1-12.9-20-12.9
			c-12.1,0-21.9,9.8-21.9,22c0,12.2,9.8,22,21.9,22c11.8,0,21.3-9.2,21.9-20.8h-19.2v5.8L668,143.7z M576.2,115.2v43.2h6.4v-28.9
			l36.6,28.9v-43.2h-6.4v29.4L576.2,115.2z M492.3,115.4v43h6.6v-23.7l19.3,22.4l19.4-22.4v23.6h6.3v-43.2l-25.7,31.4L492.3,115.4z
			 M716.4,140.9c0,6.5-5.3,11.7-11.7,11.7c-6.4,0-11.7-5.2-11.7-11.7l0.1-25.7h-6.3l-0.2,25.7c0,9.7,8.1,17.5,18.1,17.5
			c10,0,18-7.8,18-17.5v-25.7h-6.4V140.9z M108.6,158.4l6.2-12.2h18.1l6.4,12.2h6.4l-21.8-43.2l-21.9,43.2H108.6z M123.9,128.2
			l5.8,11.6h-11.5L123.9,128.2z M408.4,158.3c11.9,0,21.5-9.5,21.5-21.4c0-11.9-9.6-21.7-21.5-21.7h-0.2l-14.5-0.1v43.3L408.4,158.3
			z M408.2,152.5c8.7,0,15.8-7,15.8-15.6c0-8.6-7.1-15.6-15.8-15.6h-0.1l-7.8-0.1v31.4L408.2,152.5z M168.5,158.4
			c11.9,0,21.5-9.5,21.5-21.4c0-11.9-9.6-21.7-21.5-21.7h-0.2l-14.5-0.1v43.3L168.5,158.4z M168.3,152.6c8.8,0,15.8-6.9,15.8-15.6
			c0-8.6-7.1-15.6-15.8-15.6h-0.1l-7.8-0.1v31.4L168.3,152.6z"/>
	</g>
</g>
</svg>
